<svg width="16" height="16" viewBox="0 0 16 16" fill="none" xmlns="http://www.w3.org/2000/svg">
<g id="Icons/close">
<path id="Vector" d="M8.84528 7.29295L8.13795 8.00028L8.84551 8.70738L13.1931 13.0522C13.1931 13.0523 13.1932 13.0523 13.1932 13.0523C13.2118 13.071 13.2223 13.0963 13.2223 13.1227C13.2223 13.1491 13.2118 13.1744 13.1931 13.1931C13.1744 13.2118 13.1491 13.2223 13.1227 13.2223C13.0963 13.2223 13.0709 13.2118 13.0522 13.1931L8.70716 8.84803L8.00005 8.14092L7.29295 8.84803L2.94787 13.1931C2.92919 13.2118 2.90386 13.2223 2.87744 13.2223C2.85102 13.2223 2.82569 13.2118 2.80701 13.1931C2.78833 13.1744 2.77783 13.1491 2.77783 13.1227C2.77783 13.0963 2.78833 13.0709 2.80701 13.0522L7.15208 8.70716L7.85919 8.00005L7.15208 7.29295L2.80701 2.94787C2.78833 2.92919 2.77783 2.90386 2.77783 2.87744C2.77783 2.85102 2.78833 2.82569 2.80701 2.80701C2.82569 2.78833 2.85102 2.77783 2.87744 2.77783C2.90386 2.77783 2.92919 2.78833 2.94787 2.80701L7.29295 7.15208L8.00005 7.85919L8.70716 7.15208L13.0516 2.80763C13.0517 2.80759 13.0517 2.80754 13.0517 2.8075C13.0702 2.7891 13.0953 2.77878 13.1214 2.7788C13.1475 2.77883 13.1726 2.78924 13.1911 2.80775C13.2096 2.82627 13.22 2.85137 13.2199 2.87753C13.2199 2.90369 13.2095 2.92877 13.191 2.94725L13.1904 2.94787L8.84528 7.29295Z" fill="#1E0E39" stroke="white" stroke-width="2"/>
</g>
</svg>
