<svg width="16" height="16" viewBox="0 0 16 16" fill="none" xmlns="http://www.w3.org/2000/svg">
<g id="Icons/bulb">
<path id="Vector" d="M9.00001 14.5H7.00001C6.86741 14.5 6.74023 14.5527 6.64646 14.6465C6.55269 14.7402 6.50001 14.8674 6.50001 15C6.50001 15.1326 6.55269 15.2598 6.64646 15.3536C6.74023 15.4473 6.86741 15.5 7.00001 15.5H9.00001C9.13262 15.5 9.2598 15.4473 9.35357 15.3536C9.44734 15.2598 9.50001 15.1326 9.50001 15C9.50001 14.8674 9.44734 14.7402 9.35357 14.6465C9.2598 14.5527 9.13262 14.5 9.00001 14.5ZM9.50001 13H6.50001C6.36741 13 6.24023 13.0527 6.14646 13.1465C6.05269 13.2402 6.00001 13.3674 6.00001 13.5C6.00001 13.6326 6.05269 13.7598 6.14646 13.8536C6.24023 13.9473 6.36741 14 6.50001 14H9.50001C9.63262 14 9.7598 13.9473 9.85357 13.8536C9.94734 13.7598 10 13.6326 10 13.5C10 13.3674 9.94734 13.2402 9.85357 13.1465C9.7598 13.0527 9.63262 13 9.50001 13ZM11.5444 1.95908C10.6047 1.01814 9.34595 0.500014 8.00001 0.500014C7.34297 0.498448 6.69208 0.626708 6.08475 0.877427C5.47741 1.12815 4.92559 1.49638 4.46099 1.96099C3.99638 2.42559 3.62815 2.97741 3.37743 3.58475C3.12671 4.19208 2.99845 4.84297 3.00001 5.50001C3.00001 6.95689 3.55845 8.3197 4.53126 9.23876L4.66751 9.36658C5.23033 9.89283 6.00001 10.6138 6.00001 11.25V12C6.00001 12.1326 6.05269 12.2598 6.14646 12.3536C6.24023 12.4473 6.36741 12.5 6.50001 12.5H7.25001C7.31632 12.5 7.37991 12.4737 7.42679 12.4268C7.47368 12.3799 7.50001 12.3163 7.50001 12.25V8.58814C7.50003 8.53758 7.48472 8.48821 7.4561 8.44653C7.42748 8.40486 7.38689 8.37284 7.3397 8.3547C7.05098 8.23691 6.77669 8.08645 6.5222 7.90626C6.46501 7.86974 6.41585 7.82196 6.37772 7.76584C6.33959 7.70971 6.31328 7.64641 6.3004 7.57978C6.28751 7.51316 6.28833 7.44461 6.30279 7.37832C6.31725 7.31202 6.34505 7.24936 6.3845 7.19415C6.42395 7.13894 6.47423 7.09234 6.53227 7.05719C6.59031 7.02203 6.6549 6.99906 6.7221 6.98967C6.78931 6.98028 6.85772 6.98466 6.92317 7.00256C6.98862 7.02046 7.04975 7.05149 7.10283 7.09376C7.33408 7.25751 7.77939 7.50001 8.00001 7.50001C8.22064 7.50001 8.66595 7.25689 8.89783 7.09376C9.00579 7.02589 9.13561 7.00183 9.26073 7.02652C9.38585 7.0512 9.4968 7.12276 9.5709 7.22656C9.64499 7.33036 9.67662 7.45854 9.65932 7.58489C9.64202 7.71124 9.5771 7.82621 9.47783 7.90626C9.22329 8.08613 8.94901 8.23627 8.66033 8.35376C8.61314 8.3719 8.57255 8.40392 8.54393 8.4456C8.51531 8.48727 8.5 8.53664 8.50001 8.5872V12.25C8.50001 12.3163 8.52635 12.3799 8.57324 12.4268C8.62012 12.4737 8.68371 12.5 8.75001 12.5H9.50001C9.63262 12.5 9.7598 12.4473 9.85357 12.3536C9.94734 12.2598 10 12.1326 10 12V11.25C10 10.6288 10.7613 9.90845 11.3172 9.3822L11.4706 9.23658C12.4713 8.28126 13 6.98783 13 5.50001C13.0033 4.8429 12.8764 4.19165 12.6265 3.58388C12.3767 2.97611 12.0089 2.42387 11.5444 1.95908Z" fill="white"/>
</g>
</svg>
