<svg width="24" height="24" viewBox="0 0 24 24" fill="none" xmlns="http://www.w3.org/2000/svg">
<g id="Icons/Money" clip-path="url(#clip0_4062_1219)">
<path id="Vector" d="M12 0C5.38288 0 0 5.38288 0 12C0 18.6171 5.38288 24 12 24C18.6171 24 24 18.6171 24 12C24 5.38288 18.6171 0 12 0ZM15.7699 15.6656C15.4075 16.1939 14.9326 16.5902 14.3102 16.8861C13.851 17.0896 13.373 17.2146 12.8794 17.261V18.874C12.8794 19.1202 12.6802 19.3187 12.4347 19.3187H11.1037C10.8575 19.3187 10.659 19.1196 10.659 18.874V17.1216C10.4084 17.06 10.1615 16.974 9.91405 16.8609C9.24889 16.5896 8.71248 16.1474 8.33625 15.5526C7.95875 15.0005 7.75588 14.3554 7.72447 13.5935C7.71442 13.3523 7.89846 13.1476 8.13902 13.1312L9.33431 13.0496C9.57488 13.0358 9.77838 13.206 9.80665 13.4409C9.85438 13.841 9.96681 14.172 10.1326 14.3981C10.3192 14.6783 10.5585 14.8623 10.9203 15.0105C11.6866 15.3478 12.6614 15.3484 13.336 15.089C13.635 14.9609 13.8466 14.8139 13.9867 14.633C14.1067 14.4609 14.1657 14.28 14.1657 14.064C14.1657 13.8611 14.1136 13.7116 13.9873 13.5495C13.9214 13.4616 13.7512 13.297 13.3033 13.118C13.0847 13.0458 12.5169 12.8844 11.6527 12.6752C10.6433 12.4233 10.0591 12.2324 9.69673 12.0358C9.15718 11.7506 8.75205 11.3951 8.49767 10.9812C8.23701 10.5597 8.1051 10.0786 8.1051 9.55226C8.1051 8.97943 8.26527 8.4336 8.58058 7.92986C8.9072 7.43868 9.38896 7.05302 9.98063 6.80429C10.1785 6.71447 10.4033 6.6391 10.6596 6.5788V5.09584C10.6596 4.84962 10.8587 4.65114 11.1043 4.65114H12.4353C12.6815 4.65114 12.88 4.85025 12.88 5.09584V6.50029C13.2801 6.56687 13.6507 6.66799 13.9867 6.80178C14.6368 7.09385 15.1085 7.48516 15.4452 8.00586C15.7825 8.49704 15.9728 9.08684 16.0061 9.74823C16.018 9.99068 15.8333 10.198 15.5909 10.2143L14.3673 10.2966C14.1312 10.3129 13.9283 10.1446 13.8963 9.9128C13.8278 9.41094 13.6601 9.06046 13.3831 8.8425C13.0684 8.5743 12.6118 8.44931 11.9736 8.44931C11.3487 8.44931 10.8468 8.57053 10.5597 8.79163C10.3267 8.97126 10.2174 9.18733 10.2174 9.47124C10.2174 9.68982 10.2859 9.86129 10.4209 9.98189C10.4925 10.0384 10.8832 10.2928 12.1463 10.5585C13.1896 10.8047 13.9566 11.0289 14.3768 11.2098C15.0463 11.5113 15.5249 11.9001 15.8057 12.3674C16.1191 12.8366 16.2768 13.3617 16.2768 13.9547C16.2768 14.5715 16.1066 15.1468 15.7699 15.6656Z" fill="white"/>
</g>
<defs>
<clipPath id="clip0_4062_1219">
<rect width="24" height="24" fill="white"/>
</clipPath>
</defs>
</svg>
