<svg width="18" height="18" viewBox="0 0 18 18" fill="none" xmlns="http://www.w3.org/2000/svg">
<path d="M14.5502 5.50489L12.4952 3.44989C12.227 3.19797 11.8756 3.05341 11.5077 3.04373C11.1399 3.03405 10.7813 3.15992 10.5002 3.39739L3.75022 10.1474C3.5078 10.3919 3.35685 10.7123 3.32272 11.0549L3.00022 14.1824C2.99012 14.2922 3.00437 14.403 3.04197 14.5067C3.07956 14.6104 3.13957 14.7045 3.21772 14.7824C3.2878 14.8519 3.37091 14.9069 3.46229 14.9442C3.55367 14.9815 3.65152 15.0005 3.75022 14.9999H3.81772L6.94522 14.7149C7.28782 14.6808 7.60825 14.5298 7.85272 14.2874L14.6027 7.53739C14.8647 7.26062 15.0063 6.89127 14.9965 6.51029C14.9866 6.12932 14.8261 5.76777 14.5502 5.50489ZM6.81022 13.2149L4.56022 13.4249L4.76272 11.1749L9.00022 6.98989L11.0252 9.01489L6.81022 13.2149ZM12.0002 8.00989L9.99022 5.99989L11.4527 4.49989L13.5002 6.54739L12.0002 8.00989Z" fill="white"/>
</svg>
