<svg width="18" height="18" viewBox="0 0 18 18" fill="none" xmlns="http://www.w3.org/2000/svg">
<g id="Icons/trending-up">
<path id="Vector" d="M12.375 5.0625H16.3125V9" stroke="white" stroke-width="1.5" stroke-linecap="round" stroke-linejoin="round"/>
<path id="Vector_2" d="M1.6875 12.9375L5.95441 8.67059C6.05888 8.56609 6.18291 8.4832 6.31942 8.42665C6.45593 8.3701 6.60224 8.34099 6.75 8.34099C6.89776 8.34099 7.04407 8.3701 7.18058 8.42665C7.31709 8.4832 7.44112 8.56609 7.54559 8.67059L9.32941 10.4544C9.43388 10.5589 9.55791 10.6418 9.69442 10.6984C9.83093 10.7549 9.97724 10.784 10.125 10.784C10.2728 10.784 10.4191 10.7549 10.5556 10.6984C10.6921 10.6418 10.8161 10.5589 10.9206 10.4544L15.75 5.625" stroke="white" stroke-width="1.5" stroke-linecap="round" stroke-linejoin="round"/>
</g>
</svg>
