<svg width="24" height="24" viewBox="0 0 24 24" fill="none" xmlns="http://www.w3.org/2000/svg">
<g id="Icons/people-circle-outline">
<path id="Vector" d="M12 21.75C6.62391 21.75 2.25 17.3761 2.25 12C2.25 6.62391 6.62391 2.25 12 2.25C17.3761 2.25 21.75 6.62391 21.75 12C21.75 17.3761 17.3761 21.75 12 21.75ZM12 3.75C7.45312 3.75 3.75 7.45312 3.75 12C3.75 16.5469 7.45312 20.25 12 20.25C16.5469 20.25 20.25 16.5492 20.25 12C20.25 7.45078 16.5492 3.75 12 3.75Z" fill="white"/>
<path id="Vector_2" d="M15.1718 13.6875C14.3562 13.6875 13.5682 13.3256 12.9528 12.6689C12.344 12.0086 11.98 11.1595 11.9215 10.2633C11.8526 9.29297 12.1503 8.4 12.7596 7.74984C13.369 7.09969 14.2207 6.75 15.1718 6.75C16.1159 6.75 16.9704 7.10719 17.5779 7.75594C18.1854 8.40469 18.4906 9.30281 18.4217 10.2642C18.3621 11.1599 17.9982 12.0083 17.3904 12.6689C16.7745 13.3256 15.987 13.6875 15.1718 13.6875ZM7.67887 13.845C6.28387 13.845 5.05715 12.5555 4.94465 10.9702C4.88699 10.1583 5.13918 9.40781 5.65574 8.85703C6.1723 8.30625 6.8848 8.01328 7.6784 8.01328C8.47199 8.01328 9.18402 8.31516 9.6973 8.86359C10.2106 9.41203 10.4707 10.1677 10.4121 10.973C10.2978 12.5559 9.07152 13.845 7.67887 13.845ZM19.7046 16.6537C19.6301 16.4334 19.4487 16.1986 19.085 15.9759C17.9853 15.3042 16.6325 14.9489 15.1718 14.9489C13.7389 14.9489 12.3486 15.3192 11.2564 15.9919C10.0259 16.7498 9.19902 17.8552 8.86574 19.1878C8.78699 19.5014 8.67215 20.085 8.79496 20.4117C10.7658 21.1612 12.9371 21.1956 14.9307 20.5089C16.9243 19.8222 18.6139 18.4579 19.7051 16.6537H19.7046ZM7.66996 18.8142C8.00137 17.4919 8.70684 16.3894 9.80137 15.4978C9.85311 15.4551 9.89246 15.3993 9.9153 15.3363C9.93815 15.2732 9.94366 15.2052 9.93126 15.1392C9.91886 15.0733 9.88901 15.0119 9.84481 14.9615C9.8006 14.911 9.74368 14.8733 9.67996 14.8523C9.11746 14.6728 8.47527 14.5767 7.67887 14.5767C6.5623 14.5767 5.37684 14.8791 4.4848 15.4284C4.23168 15.5845 3.98324 15.6445 3.79199 15.698C4.55984 17.395 5.83321 18.8135 7.43793 19.7592L7.52184 19.7527C7.54018 19.4357 7.5898 19.1214 7.66996 18.8142Z" fill="white"/>
</g>
</svg>
