<svg width="18" height="18" viewBox="0 0 18 18" fill="none" xmlns="http://www.w3.org/2000/svg">
<g id="Icons/cloud-upload">
<path id="Vector" d="M16.6521 7.38287C16.1599 7.01795 15.5552 6.75006 14.9168 6.60557C14.812 6.58198 14.716 6.52907 14.6401 6.453C14.5642 6.37693 14.5116 6.28084 14.4882 6.17596C14.214 4.95428 13.6237 3.90662 12.7561 3.11279C11.7475 2.18854 10.4136 1.68018 9 1.68018C7.75723 1.68018 6.60938 2.06971 5.6823 2.80693C5.054 3.30737 4.54826 3.94466 4.20363 4.67021C4.16627 4.7496 4.11085 4.81915 4.04181 4.87329C3.97277 4.92744 3.89202 4.96469 3.80602 4.98205C2.86559 5.17189 2.01656 5.57514 1.36828 6.14643C0.473203 6.93744 0 7.98897 0 9.18955C0 10.4031 0.509414 11.5099 1.43402 12.31C2.31715 13.0726 3.50613 13.4927 4.78125 13.4927H8.4375V8.10076L7.14762 9.39064C7.09377 9.44449 7.02954 9.48684 6.95884 9.51513C6.88813 9.54342 6.81242 9.55705 6.73629 9.55521C6.66016 9.55337 6.58519 9.53609 6.51594 9.50442C6.44669 9.47275 6.38458 9.42734 6.3334 9.37096C6.12949 9.14701 6.14918 8.79791 6.36328 8.58381L8.60238 6.34506C8.70786 6.23965 8.85088 6.18044 9 6.18044C9.14912 6.18044 9.29214 6.23965 9.39762 6.34506L11.6367 8.58311C11.8575 8.80424 11.8702 9.1667 11.6504 9.38853C11.5983 9.44118 11.5363 9.48302 11.4679 9.51163C11.3996 9.54024 11.3263 9.55507 11.2522 9.55527C11.1781 9.55547 11.1047 9.54102 11.0362 9.51277C10.9677 9.48452 10.9055 9.44302 10.8531 9.39064L9.5625 8.10076V13.4927H13.9219C15.0237 13.4927 16.0281 13.1833 16.7502 12.6219C17.5679 11.9855 18 11.075 18 9.99111C18 8.93853 17.5338 8.03607 16.6521 7.38287ZM8.4375 15.7574C8.4375 15.9066 8.49676 16.0497 8.60225 16.1552C8.70774 16.2607 8.85082 16.3199 9 16.3199C9.14918 16.3199 9.29226 16.2607 9.39775 16.1552C9.50324 16.0497 9.5625 15.9066 9.5625 15.7574V13.4927H8.4375V15.7574Z" fill="white"/>
</g>
</svg>
