<svg width="18" height="18" viewBox="0 0 18 18" fill="none" xmlns="http://www.w3.org/2000/svg">
<g id="Icons/cloud-download-sharp">
<path id="Vector" d="M16.6184 6.66211C16.0643 6.31055 15.3454 6.07184 14.5586 5.97516C14.3248 4.60055 13.7071 3.42562 12.7561 2.55586C11.7475 1.63301 10.4136 1.125 9 1.125C7.75723 1.125 6.60938 1.51453 5.6823 2.25C4.97878 2.81036 4.43059 3.54167 4.09008 4.37414C3.01184 4.52602 2.08617 4.88777 1.39324 5.42883C0.481641 6.14637 0 7.15641 0 8.35313C0 10.7227 1.96594 12.375 4.78125 12.375H8.4375V7.3125H9.5625V12.375H13.9219C16.4756 12.375 18 11.1712 18 9.15469C18 8.09824 17.5222 7.23621 16.6184 6.66211ZM8.4375 14.7452L6.7493 13.043L5.95441 13.8516L9 16.875L12.0456 13.8516L11.2507 13.043L9.5625 14.7452V12.375H8.4375V14.7452Z" fill="white"/>
</g>
</svg>
