<svg width="18" height="19" viewBox="0 0 18 19" fill="none" xmlns="http://www.w3.org/2000/svg">
<path d="M3.35742 4.15622H14.6074C14.7388 4.15615 14.8701 4.16449 15.0005 4.18118C14.9563 3.87102 14.8497 3.57302 14.6873 3.30515C14.5248 3.03728 14.3098 2.80508 14.0552 2.62256C13.8005 2.44004 13.5116 2.31097 13.2057 2.24315C12.8999 2.17532 12.5834 2.17013 12.2755 2.2279L3.02344 3.80747H3.01289C2.43214 3.91852 1.91569 4.2471 1.56902 4.7261C2.0913 4.35461 2.7165 4.15539 3.35742 4.15622ZM14.6074 4.99997H3.35742C2.76088 5.00062 2.18897 5.23788 1.76715 5.6597C1.34534 6.08151 1.10807 6.65343 1.10742 7.24997V14C1.10807 14.5965 1.34534 15.1684 1.76715 15.5902C2.18897 16.0121 2.76088 16.2493 3.35742 16.25H14.6074C15.204 16.2493 15.7759 16.0121 16.1977 15.5902C16.6195 15.1684 16.8568 14.5965 16.8574 14V7.24997C16.8568 6.65343 16.6195 6.08151 16.1977 5.6597C15.7759 5.23788 15.204 5.00062 14.6074 4.99997ZM12.9375 11.75C12.715 11.75 12.4975 11.684 12.3125 11.5604C12.1275 11.4368 11.9833 11.2611 11.8981 11.0555C11.813 10.8499 11.7907 10.6237 11.8341 10.4055C11.8775 10.1873 11.9847 9.98681 12.142 9.82947C12.2993 9.67214 12.4998 9.56499 12.718 9.52158C12.9363 9.47817 13.1625 9.50045 13.368 9.5856C13.5736 9.67075 13.7493 9.81494 13.8729 9.99995C13.9965 10.185 14.0625 10.4025 14.0625 10.625C14.0625 10.9233 13.944 11.2095 13.733 11.4205C13.522 11.6314 13.2359 11.75 12.9375 11.75Z" fill="white"/>
<path d="M1.125 9.62305V6.125C1.125 5.36316 1.54688 4.08594 3.01113 3.80926C4.25391 3.57617 5.48438 3.57617 5.48438 3.57617C5.48438 3.57617 6.29297 4.13867 5.625 4.13867C4.95703 4.13867 4.97461 5 5.625 5C6.27539 5 5.625 5.82617 5.625 5.82617L3.00586 8.79688L1.125 9.62305Z" fill="white"/>
</svg>
