<svg width="24" height="24" viewBox="0 0 24 24" fill="none" xmlns="http://www.w3.org/2000/svg">
<g id="Icons/pie-chart-sharp">
<path id="Vector" d="M2.71867 16.973L2.41351 16.2891C1.6979 14.69 1.39376 12.9373 1.5288 11.1906C1.66385 9.44392 2.23379 7.75879 3.1867 6.28872C4.13961 4.81865 5.4452 3.61038 6.98454 2.77397C8.52388 1.93756 10.248 1.49961 11.9999 1.5H12.7499V12.4861L2.71867 16.973Z" fill="white"/>
<path id="Vector_2" d="M14.25 3.11523V13.4582L4.4353 17.849C5.30869 19.2698 6.53142 20.4431 7.98693 21.2573C9.44245 22.0715 11.0822 22.4993 12.75 22.4999C18.1261 22.4999 22.5 18.126 22.5 12.7499C22.5 7.88383 18.9164 3.83898 14.25 3.11523Z" fill="white"/>
</g>
</svg>
